<?xml version="1.0" encoding="utf-8"?>
<!-- Generator: Adobe Illustrator 17.1.0, SVG Export Plug-In . SVG Version: 6.00 Build 0)  -->
<!DOCTYPE svg PUBLIC "-//W3C//DTD SVG 1.1//EN" "http://www.w3.org/Graphics/SVG/1.1/DTD/svg11.dtd">
<svg version="1.1" id="Layer_1" xmlns="http://www.w3.org/2000/svg" xmlns:xlink="http://www.w3.org/1999/xlink" x="0px" y="0px"
	 viewBox="0 0 714.3 714.3" enable-background="new 0 0 714.3 714.3" xml:space="preserve">
<g>
	<path fill="none" stroke="#000000" stroke-width="2" stroke-linecap="round" stroke-linejoin="round" d="M2.8,357.2
		c0,195.7,158.6,354.4,354.3,354.4c195.7,0,354.3-158.6,354.3-354.4c0-195.7-158.6-354.3-354.3-354.3C161.4,2.8,2.8,161.5,2.8,357.2
		z"/>
	<path fill="none" stroke="#000000" stroke-width="2" d="M546.2,490.5h-51.1v82.1h-79.9v-82.1H191.7l-0.1-59.3l97.7-86.8
		c47.3-39.1,65.8-59.8,65.8-91.3c0-32.1-21.2-49.5-51.1-49.5c-29.4,0-49.5,16.3-77.8,51.1l-58.7-47.3c37.5-51.1,74-78.8,141.9-78.8
		c78.8,0,131,46.2,131,117.4v1.1c0,62.6-26.1,85-76.1,130.2h0l-50.2,45.1h101.1v-37.8l79.9-71.7v109.6h51.1V490.5z"/>
</g>
<g>
</g>
<g>
</g>
<g>
</g>
<g>
</g>
<g>
</g>
<g>
</g>
</svg>
